<svg version="1.2" xmlns="http://www.w3.org/2000/svg" viewBox="0 0 100 100" width="100" height="100">
	<style>
		.s0 { fill: #737373 } 
	</style>
	<path class="s0" d="m81.11 40.29c-1.06-3.34-2.65-6.49-4.69-9.34-2.04-2.85-4.52-5.36-7.34-7.44-2.83-2.08-5.96-3.7-9.28-4.8-3.33-1.11-6.81-1.68-10.31-1.71-2.97-0.02-5.93 0.37-8.79 1.15-2.87 0.77-5.61 1.94-8.16 3.45-2.56 1.52-4.89 3.37-6.94 5.52-2.06 2.14-3.81 4.55-5.21 7.17-5.19 0.93-9.95 3.49-13.58 7.31-3.63 3.82-5.94 8.69-6.61 13.92-0.67 5.23 0.35 10.53 2.91 15.14 2.55 4.61 6.52 8.28 11.3 10.48l0.62 0.28h0.05v-7.04c-3.29-2.01-5.86-5.01-7.36-8.56-1.5-3.55-1.85-7.48-1-11.24 0.85-3.76 2.86-7.16 5.73-9.72 2.88-2.57 6.49-4.16 10.32-4.57l1.74-0.19 0.76-1.56c1.08-2.28 2.47-4.4 4.15-6.29 1.67-1.89 3.6-3.53 5.73-4.88 2.14-1.34 4.45-2.38 6.88-3.07 2.42-0.69 4.93-1.04 7.46-1.03 3 0.02 5.97 0.54 8.8 1.54 2.83 1 5.48 2.45 7.83 4.32 2.35 1.86 4.37 4.1 5.99 6.63 1.62 2.53 2.8 5.3 3.51 8.22l0.6 2.37h2.48c1.99 0.04 3.94 0.47 5.77 1.25 1.82 0.79 3.47 1.92 4.86 3.33 1.39 1.42 2.5 3.09 3.25 4.93 0.76 1.83 1.15 3.8 1.16 5.78 0 5.84-3.37 10.62-9.11 13.04v6.68l0.41-0.14c9.23-3.02 14.96-10.52 14.96-19.58-0.02-2.6-0.5-5.17-1.43-7.6-0.93-2.43-2.29-4.67-4.01-6.61-1.73-1.95-3.78-3.57-6.08-4.79-2.29-1.22-4.79-2.02-7.37-2.35z"/>
	<path class="s0" d="m37.34 80.61l1.38 1.38q0.05 0.06 0.07 0.14 0.02 0.08-0.02 0.15-0.03 0.08-0.09 0.12-0.07 0.05-0.15 0.05h-10.86q-0.98 0-1.9-0.38-0.91-0.38-1.61-1.07-0.7-0.7-1.08-1.62-0.37-0.91-0.38-1.9v-21.07q0-0.06-0.02-0.11-0.02-0.05-0.06-0.09-0.03-0.04-0.08-0.06-0.06-0.02-0.11-0.02h-2.32q-0.08 0-0.15-0.04-0.07-0.05-0.1-0.12-0.03-0.08-0.02-0.16 0.02-0.08 0.07-0.14l9.21-9.21q0.04-0.04 0.09-0.06 0.05-0.02 0.11-0.02 0.05 0 0.1 0.02 0.05 0.02 0.09 0.06l9.21 9.21q0.05 0.06 0.07 0.14 0.01 0.08-0.02 0.15-0.03 0.08-0.1 0.12-0.06 0.05-0.14 0.05h-2.36q-0.05 0-0.1 0.02-0.05 0.02-0.09 0.06-0.04 0.04-0.07 0.09-0.02 0.05-0.02 0.11v20.7q0 0.49 0.1 0.97 0.09 0.48 0.28 0.93 0.19 0.45 0.46 0.85 0.27 0.41 0.61 0.75zm20.35 0l1.39 1.38q0.05 0.06 0.07 0.14 0.02 0.08-0.02 0.15-0.03 0.08-0.1 0.13-0.07 0.04-0.15 0.04h-10.83q-0.99 0-1.9-0.38-0.91-0.38-1.61-1.08-0.7-0.7-1.08-1.61-0.38-0.91-0.38-1.9v-15.75q0-0.05-0.02-0.1-0.02-0.06-0.06-0.09-0.04-0.04-0.09-0.07-0.05-0.02-0.1-0.02h-2.35q-0.08 0-0.14-0.05-0.07-0.04-0.1-0.12-0.03-0.07-0.02-0.15 0.02-0.08 0.07-0.14l9.21-9.2q0.03-0.03 0.06-0.05 0.04-0.02 0.08-0.02 0.04-0.01 0.08-0.01 0.04 0.01 0.08 0.02 0.01 0.01 0.02 0.01 0.01 0.01 0.02 0.02 0.02 0.01 0.03 0.01 0.01 0.01 0.02 0.02l9.21 9.18q0.05 0.06 0.07 0.14 0.01 0.08-0.02 0.16-0.03 0.07-0.1 0.12-0.07 0.04-0.15 0.04h-2.35q-0.06 0.01-0.11 0.03-0.05 0.02-0.09 0.06-0.04 0.04-0.06 0.09-0.02 0.05-0.02 0.11v15.39q0 0.49 0.1 0.97 0.09 0.48 0.28 0.93 0.18 0.45 0.45 0.85 0.27 0.41 0.61 0.75zm20.37 0l1.37 1.38q0.06 0.05 0.07 0.13 0.02 0.08-0.01 0.16-0.03 0.08-0.1 0.12-0.07 0.05-0.15 0.05h-10.86q-0.99 0-1.9-0.38-0.91-0.38-1.61-1.08-0.7-0.7-1.08-1.61-0.38-0.91-0.38-1.9v-10.46q0-0.06-0.02-0.11-0.02-0.05-0.06-0.09-0.04-0.03-0.09-0.06-0.05-0.02-0.1-0.02h-2.32q-0.09 0-0.16-0.04-0.07-0.05-0.1-0.13-0.03-0.08-0.01-0.16 0.01-0.08 0.08-0.14l9.21-9.2q0.04-0.04 0.08-0.06 0.05-0.02 0.11-0.02 0.05 0 0.1 0.02 0.05 0.02 0.09 0.06l9.21 9.2q0.06 0.06 0.08 0.14 0.02 0.08-0.01 0.16-0.04 0.08-0.11 0.13-0.07 0.04-0.15 0.04h-2.36q-0.05 0-0.1 0.02-0.05 0.03-0.09 0.06-0.04 0.04-0.06 0.09-0.02 0.05-0.02 0.11v10.09q0 0.49 0.09 0.97 0.1 0.48 0.29 0.93 0.18 0.45 0.45 0.85 0.27 0.41 0.62 0.75z"/>
</svg>