<svg version="1.2" xmlns="http://www.w3.org/2000/svg" viewBox="0 0 800 800" width="800" height="800"><style>.a{fill:#737373}</style><path class="a" d="m373.8 0.2c-1.7 0.2-7.2 0.7-12.1 1.1-113.6 10.3-220.1 71.6-287.5 165.8-37.5 52.4-61.5 111.8-70.6 174.7-3.2 22-3.6 28.5-3.6 58.3 0 29.8 0.4 36.3 3.6 58.2 21.7 150.2 128.6 276.4 273.6 323.2 26 8.4 53.4 14.1 84.5 17.5 12.1 1.3 64.5 1.3 76.6 0 53.7-5.9 99.3-19.2 144.1-42.1 6.9-3.6 8.3-4.5 7.3-5.3-0.6-0.4-29.9-39.8-65.1-87.3l-64-86.4-80.2-118.6c-44.1-65.2-80.3-118.6-80.7-118.6-0.3 0-0.6 52.7-0.7 117-0.3 112.7-0.3 117.2-1.8 119.9-2 3.8-3.6 5.4-6.8 7.1-2.5 1.2-4.7 1.5-16.5 1.5h-13.6l-3.6-2.3c-2.3-1.5-4-3.4-5.2-5.7l-1.6-3.5 0.1-156.8 0.2-156.8 2.5-3.1c1.2-1.6 3.9-3.7 5.8-4.8 3.2-1.5 4.4-1.7 17.9-1.7 16 0 18.7 0.6 22.8 5.2 1.2 1.2 44.6 66.6 96.5 145.3 51.9 78.8 122.9 186.3 157.8 239.1l63.4 95.9 3.2-2.1c28.3-18.5 58.4-44.7 82.1-72.1 50.6-58.1 83.3-128.9 94.2-204.5 3.2-21.9 3.6-28.4 3.6-58.2 0-29.8-0.4-36.3-3.6-58.3-21.7-150.2-128.6-276.4-273.6-323.1-25.6-8.3-52.8-14-83.3-17.5-7.5-0.8-59.2-1.6-65.7-1zm163.8 241.9c3.7 1.9 6.8 5.5 7.9 9.3 0.6 2 0.7 45.5 0.6 143.4l-0.3 140.6-24.7-38-24.9-38v-102.2c0-66 0.3-103.2 0.8-105 1.2-4.4 4-7.8 7.7-9.8 3.2-1.7 4.4-1.8 16.7-1.8 11.5 0 13.6 0.1 16.2 1.5z"/></svg>