<svg version="1.2" xmlns="http://www.w3.org/2000/svg" viewBox="0 0 256 256" width="256" height="256">
	<style>
		.s0 { fill: #737373 } 
		.s1 { fill: #fdfdfe } 
	</style>
	<path class="s0" d="m62.18-0.53q2.39-0.01 4.78-0.03 6.44-0.03 12.88-0.01 5.4 0 10.8-0.01 12.76-0.02 25.51 0 13.1 0.02 26.21-0.03 11.3-0.04 22.6-0.02 6.72 0.01 13.45-0.02 6.33-0.03 12.66 0.01 2.31 0.01 4.61-0.01c17.58-0.13 31.66 4.8 44.69 16.85 12.35 13.04 16.25 28.51 16.16 45.98q0.01 2.39 0.03 4.78 0.03 6.44 0.01 12.88 0 5.4 0.01 10.8 0.02 12.76 0 25.51-0.02 13.1 0.03 26.21 0.04 11.3 0.02 22.6-0.01 6.72 0.02 13.45 0.03 6.33-0.01 12.66-0.01 2.31 0.01 4.61c0.13 17.58-4.8 31.66-16.85 44.7-13.02 12.32-28.47 16.24-45.92 16.14q-2.38 0.01-4.76 0.02-6.41 0.02-12.82 0-6.75-0.01-13.49 0-11.32 0.01-22.64-0.02-13.05-0.03-26.09 0.01-11.25 0.03-22.49 0.01-6.7-0.01-13.4 0.01-6.3 0.01-12.6-0.02-2.29-0.01-4.59 0c-17.57 0.09-32.76-4.72-45.65-17-12.45-13.4-16.13-28.29-16-46.05q-0.01-2.39-0.02-4.78-0.03-6.42 0-12.84 0.01-6.77-0.01-13.53-0.01-11.35 0.03-22.71 0.03-13.07-0.01-26.14-0.03-11.28-0.01-22.56 0.01-6.71-0.01-13.42-0.02-6.31 0.02-12.63 0.01-2.3 0-4.59c-0.12-17.56 4.83-31.64 16.86-44.65 13.04-12.35 28.51-16.25 45.98-16.16z"/>
	<path class="s1" d="m130.81 56.63c1.49 0 1.49 0 3.01 0 12.67 0.2 24.54 2.38 36.18 7.37 0 11.88 0 23.76 0 36-9-3-9-3-12.26-4.13q-1.41-0.49-2.87-1-1.41-0.49-2.88-1c-6.48-1.88-12.98-2.1-19.68-2.18q-1.25-0.05-2.55-0.09c-4.99-0.08-4.99-0.08-9.31 2.24-2.01 3-2.1 4.61-1.45 8.16 4.24 5.63 9.95 7.14 16.44 9.37 31.15 11.2 31.15 11.2 39.56 27.63 4.06 11.51 2.75 24.41-2.07 35.44-5.35 10.44-13.8 16.9-24.74 20.75-21.37 6.56-44.46 5.3-65.19-3.19q-1.48-0.99-3-2c-0.27-2.84-0.35-5.45-0.29-8.29q0-1.22 0.01-2.48 0.03-3.93 0.09-7.85 0.03-2.67 0.04-5.33 0.06-6.52 0.15-13.05 0.77 0.34 1.55 0.69c13.4 5.88 25.09 10.49 39.89 10.69 1.3 0.02 1.3 0.02 2.62 0.04 4.78-0.04 8.08-0.28 11.94-3.42 1.49-2.98 1.51-4.69 1-8-5.85-6.27-12.81-8.57-20.75-11.44-13.82-5-27.69-10.87-35.19-24.25-4.01-9.62-3.69-22.65-0.5-32.5 5.5-12.28 15.03-19.79 27.25-24.77 7.7-2.51 14.91-3.43 23-3.42z"/>
</svg>