<svg version="1.2" xmlns="http://www.w3.org/2000/svg" viewBox="0 0 354 354" width="354" height="354">
	<style>
		.s0 { fill: #737373 } 
	</style>
	<path class="s0" d="m302.61 37.27q3.21 2.85 6.39 5.73c-0.44 4.38-3.36 6.74-6.35 9.64q-0.79 0.79-1.61 1.6-2.54 2.51-5.1 5.01-1.73 1.71-3.46 3.41-4.23 4.18-8.48 8.34c-3.24-1.53-5.84-3.4-8.62-5.68-18.82-15.47-41.85-25.29-66.38-26.32q-1.14-0.08-2.3-0.16c-27.47-1.02-53.66 8.92-74.7 26.16q-1.29 1.04-2.61 2.11c-20.88 17.76-34.01 45.84-36.39 72.89-1.86 31.64 7.72 60.59 28.69 84.44 3.95 4.39 8.02 8.14 13.37 10.75 0.98 0.48 0.98 0.48 1.98 0.98 8.03 3.4 18.66 2.97 26.83 0.27 9.48-4.04 15.91-10.01 20.13-19.44 3.94-10.79 3.7-20.25-0.88-30.76-1.48-2.96-3.16-5.58-5.12-8.24-6 4.96-11.46 10.35-16.94 15.88q-1.3 1.31-2.65 2.66-3.21 3.23-6.41 6.46c-9.75-4.57-15.19-16.43-19-26-6.75-19.76-6.6-39.87 2-59 4.16-8.46 9.36-15.33 16-22q1.1-1.15 2.23-2.34c13.44-13.18 31.76-18.94 50.27-19.16 23.25 0.25 41.34 9.9 57.56 26.19 26.08 27.05 39.42 64 39.31 101.25q0 1.07 0 2.18c-0.09 25.57-6.18 48.47-18.37 70.88q-0.83 1.56-1.68 3.17c-11.28 20.4-28.76 38.27-48.32 50.83-0.92 0.59-0.92 0.59-1.87 1.2-15.58 9.8-33.14 16.14-51.13 19.8q-1.53 0.33-3.11 0.68c-37.5 6.82-78.37-2.75-109.79-23.96-7.5-5.34-14.38-11.44-21.1-17.72 1.6-4.01 4.42-6.68 7.45-9.64q0.79-0.79 1.6-1.6 2.53-2.51 5.07-5.01 1.73-1.71 3.45-3.41 4.21-4.18 8.43-8.34c3.64 2.71 7.26 5.41 10.81 8.24 23.66 18.67 52.84 26.69 82.76 23.29 29.28-3.96 56.35-18.75 74.41-42.32 18.17-24.83 25.24-54.24 21.56-84.81-3.61-21.19-12.73-40.06-26.54-56.4q-0.98-1.17-1.99-2.37c-6.37-6.99-15.35-12.07-24.86-12.87-11.33-0.26-20.8 2.3-29.15 10.24-8.44 9-10.61 17.02-10.36 29.27 0.75 7.84 3.64 14.49 8.36 20.73 3.87-1.57 6.2-4.04 9.06-7.04q1.46-1.5 2.92-3 2.28-2.37 4.54-4.75 2.19-2.29 4.42-4.57 1.3-1.36 2.65-2.77c2.41-1.87 2.41-1.87 4.61-1.77 9.56 4.77 15.52 20.47 18.93 30.09 5.7 19.9 3.33 40.67-6.1 58.96-2.81 5.03-6.29 9.48-10.03 13.85-0.92 1.09-0.92 1.09-1.86 2.2-13.44 14.62-32.89 21.63-52.33 22.76-22.52 0.23-40.91-8.41-56.81-23.96q-1.06-0.97-2.15-1.96c-24.17-22.59-38.64-59.34-39.97-92.01-1.17-39.33 8.95-76.84 35.12-107.03q1.02-1.2 2.07-2.44c14.74-16.91 32.43-29.52 52.93-38.56q0.93-0.41 1.88-0.83c52.31-22.69 114.34-10.88 156.73 26.1z"/>
	<path class="s0" d="m256 97c25.81 21.24 40.31 56.36 44 89 0.31 5.32 0.39 10.62 0.38 15.94q-0.01 1.07-0.01 2.18c-0.09 25.57-6.18 48.47-18.37 70.88-0.83 1.57-0.83 1.57-1.68 3.17-11.28 20.4-28.76 38.27-48.32 50.83q-0.92 0.59-1.87 1.2c-15.58 9.8-33.14 16.14-51.13 19.8q-1.53 0.33-3.11 0.68c-37.5 6.82-78.37-2.75-109.79-23.96-7.5-5.34-14.38-11.44-21.1-17.72 1.6-4.01 4.42-6.68 7.45-9.64q0.79-0.79 1.6-1.6 2.53-2.51 5.08-5.01 1.72-1.71 3.44-3.41 4.21-4.18 8.43-8.34c3.64 2.71 7.26 5.41 10.81 8.24 23.66 18.67 52.84 26.69 82.76 23.29 29.28-3.96 56.35-18.75 74.41-42.32 18.17-24.83 25.24-54.24 21.56-84.81-3.83-22.47-13.98-44.48-30.54-60.4 1.6-4.01 4.42-6.68 7.45-9.64 0.79-0.79 0.79-0.79 1.6-1.6q2.53-2.51 5.08-5.01 1.72-1.71 3.44-3.41 4.21-4.18 8.43-8.34z"/>
	<path class="s0" d="m249.19 89.75c2.4 1.97 4.64 4.02 6.81 6.25-1.6 4.01-4.42 6.68-7.45 9.64q-0.79 0.79-1.6 1.6-2.53 2.51-5.07 5.01-1.73 1.71-3.45 3.41-4.21 4.18-8.43 8.34-1.11-0.72-2.25-1.46-1.47-0.95-2.98-1.92-1.44-0.93-2.94-1.9c-8.61-5.23-17.99-6.3-27.83-4.03-10.79 3.58-18.71 10.32-24.1 20.36-3.89 9.64-3.03 21.12 0.87 30.58 1.19 2.29 2.49 4.26 4.04 6.31 2.19 3.06 2.19 3.06 2.16 4.9-1.44 3.21-3.83 5.39-6.32 7.8q-0.79 0.79-1.61 1.6-2.54 2.51-5.1 5.01-1.73 1.71-3.46 3.41-4.23 4.18-8.48 8.34c-9.75-4.57-15.19-16.43-19-26-6.75-19.76-6.6-39.87 2-59 4.16-8.46 9.36-15.33 16-22q1.1-1.15 2.23-2.34c25.44-24.96 68.3-25.01 95.96-3.91z"/>
	<path class="s0" d="m204.22 150.09c9.55 4.86 15.48 20.44 18.91 30.1 5.7 19.9 3.33 40.67-6.1 58.96-2.81 5.03-6.29 9.48-10.03 13.85q-0.92 1.08-1.86 2.2c-13.44 14.62-32.89 21.63-52.33 22.76-21.07 0.22-39.73-7.24-54.81-21.96 5.1-6.18 10.68-11.8 16.37-17.44q1.39-1.37 2.81-2.79 3.41-3.39 6.82-6.77c3.62 1.79 7.1 3.76 10.59 5.78 9.04 4.56 19.7 4.81 29.28 1.66 9.48-4.04 15.91-10.01 20.13-19.44 3.91-10.72 3.73-20.24-0.81-30.7-1.75-3.39-3.84-6.29-6.19-9.3 1.59-3.86 4.2-6.54 7.09-9.46 0.74-0.76 0.74-0.76 1.51-1.53q1.57-1.6 3.16-3.19 2.42-2.45 4.81-4.93 1.54-1.55 3.08-3.1 0.71-0.74 1.44-1.5c3.36-3.31 3.36-3.31 6.13-3.2z"/>
</svg>